<?xml version="1.0" encoding="UTF-8"?>
<svg xmlns="http://www.w3.org/2000/svg" viewBox="0 0 1739.45 566.93">
  <defs>
    <style>
      .cls-1 {
        fill: #fff;
      }
    </style>
  </defs>
  <g>
    <polygon class="cls-1" points="334.44 259.6 375.38 283.95 334.44 304.97 334.44 382.07 383.48 416.95 383.48 331.98 419.89 310.43 456.13 331.98 456.13 438.44 428.89 444.22 474.48 470.9 505.43 489.33 505.43 306.28 381.12 233.37 381.12 206.63 456.13 164.67 456.13 221.31 425.18 239.14 505.43 285.82 505.43 77.6 334.44 181.71 334.44 259.6"/>
    <polygon class="cls-1" points="693.15 181.71 522.17 77.6 522.17 285.82 602.41 239.14 571.47 221.31 571.47 164.67 646.47 206.63 646.47 233.37 522.17 306.28 522.17 489.33 571.29 460.06 598.37 444.22 571.47 438.51 571.47 331.98 607.7 310.43 644.11 331.98 644.11 416.95 693.15 382.07 693.15 304.97 652.21 283.95 693.15 259.6 693.15 181.71"/>
  </g>
  <g>
    <path class="cls-1" d="M905.03,292.77h-89.04c-10.53,0-20.45-5.13-26.54-13.72-6.09-8.59-7.64-19.65-4.16-29.59l41.07-117.06,19.98,7.01-41.07,117.06c-1.24,3.52-.71,7.29,1.45,10.33,2.16,3.05,5.54,4.79,9.27,4.79h89.04v21.17Z"/>
    <rect class="cls-1" x="841.59" y="216.74" width="21.17" height="214.28"/>
    <rect class="cls-1" x="777.33" y="355.83" width="127.71" height="21.17"/>
    <rect class="cls-1" x="777.33" y="156.76" width="134.55" height="21.17"/>
    <rect class="cls-1" x="917.51" y="144.26" width="21.17" height="103.92"/>
    <path class="cls-1" d="M1049.03,248.18h-21.17v-46.73c0-10.49-8.54-19.03-19.03-19.03h-72.39v-21.17h72.39c22.17,0,40.2,18.04,40.2,40.2v46.73Z"/>
    <path class="cls-1" d="M930.23,438.06l-15.82-14.07c40.27-45.27,62.44-103.57,62.44-164.16v-43.08h21.17v43.08c0,65.78-24.08,129.08-67.79,178.23Z"/>
    <rect class="cls-1" x="1113.54" y="156.76" width="108.56" height="21.17"/>
    <path class="cls-1" d="M1125.58,430.06h-66.88c-45.13,0-81.85-36.72-81.85-81.85V216.74h21.17v131.46c0,33.46,27.22,60.68,60.68,60.68h66.88c20.75,0,37.64-16.88,37.64-37.64V135.91h21.17v235.34c0,32.43-26.38,58.81-58.81,58.81Z"/>
    <rect class="cls-1" x="1029.61" y="284.58" width="199.23" height="21.17" transform="translate(744.07 1396.94) rotate(-85.38)"/>
    <path class="cls-1" d="M1227.38,431.02h-21.17v-153.97c0-15.74-12.81-28.55-28.55-28.55v-21.17c27.42,0,49.72,22.3,49.72,49.72v153.97Z"/>
    <rect class="cls-1" x="1305.65" y="135.91" width="21.17" height="31.44"/>
    <rect class="cls-1" x="1233.47" y="156.76" width="163.53" height="21.17"/>
    <path class="cls-1" d="M1334.84,277.34h-67.94c-16.13,0-29.26-13.12-29.26-29.26,0-6.25,1.95-12.22,5.63-17.26l45.8-62.67,17.09,12.49-45.8,62.67c-1.02,1.39-1.56,3.04-1.56,4.77,0,4.46,3.63,8.08,8.08,8.08h67.94v21.17Z"/>
    <rect class="cls-1" x="1220.1" y="273.51" width="194.36" height="21.17" transform="translate(134.63 930.07) rotate(-40.81)"/>
    <rect class="cls-1" x="1220.83" y="347.22" width="194.36" height="21.17" transform="translate(86.63 948.47) rotate(-40.81)"/>
    <rect class="cls-1" x="1355.34" y="340.53" width="21.17" height="95.02" transform="translate(79.07 988.32) rotate(-40.87)"/>
  </g>
</svg>
